Coordinates
version=1
nRows=9
nColumns=63
inDegrees=yes

Units are S.I. units (second, meters, Newtons, ...)
If the header above contains a line with 'inDegrees', this indicates whether rotational values are in degrees (yes) or radians (no).

endheader
time	pelvis_tilt	pelvis_list	pelvis_rotation	pelvis_tx	pelvis_ty	pelvis_tz	hip_flexion_r	hip_adduction_r	hip_rotation_r	knee_angle_r	knee_angle_r_beta	ankle_angle_r	subtalar_angle_r	mtp_angle_r	hip_flexion_l	hip_adduction_l	hip_rotation_l	knee_angle_l	knee_angle_l_beta	ankle_angle_l	subtalar_angle_l	mtp_angle_l	L5_S1_Flex_Ext	L5_S1_Lat_Bending	L5_S1_axial_rotation	L4_L5_Flex_Ext	L4_L5_Lat_Bending	L4_L5_axial_rotation	L3_L4_Flex_Ext	L3_L4_Lat_Bending	L3_L4_axial_rotation	L2_L3_Flex_Ext	L2_L3_Lat_Bending	L2_L3_axial_rotation	L1_L2_Flex_Ext	L1_L2_Lat_Bending	L1_L2_axial_rotation	L1_T12_Flex_Ext	L1_T12_Lat_Bending	L1_T12_axial_rotation	Abs_r3	Abs_r2	Abs_r1	Abs_t1	Abs_t2	neck_flexion	neck_bending	neck_rotation	arm_flex_r	arm_add_r	arm_rot_r	elbow_flex_r	pro_sup_r	wrist_flex_r	wrist_dev_r	arm_flex_l	arm_add_l	arm_rot_l	elbow_flex_l	pro_sup_l	wrist_flex_l	wrist_dev_l
      5.56666667	      7.80552504	     -9.19160539	    126.09981508	     -0.46282798	      0.86270993	      0.04346829	     41.59868669	    -51.78825061	    -69.83410928	    107.62267400	      1.87837001	     31.72165002	    -18.44980763	      0.00000000	     -4.42605431	     14.17594379	     38.48050247	      5.40700616	      0.09437006	     59.75566477	     12.87990296	      0.00000000	     -0.06371639	     -1.33707486	      6.04879517	     -0.11832770	     -1.77830956	      6.42684487	     -0.10467965	     -3.25096381	      6.42684487	     -0.07282146	     -3.25096381	      5.29269577	     -0.05916704	     -2.72656305	      4.91464607	     -0.03640754	     -2.07112896	      4.53659638	     -0.45511977	    -15.12525821	     33.64158409	      0.00000000	      0.00000000	     27.54577060	    -20.56587193	    -43.62488228	     13.03086733	     -8.03732427	    -81.15282767	      5.98318480	    -46.48316987	     20.00411712	      5.00000014	     16.06567470	    -31.65727444	   -214.15294125	     53.21489256	     33.93608326	     20.00411712	      5.00000014
      5.60000000	      4.53744121	    -10.24972649	    116.87691603	     -0.46077551	      0.87154191	      0.03907215	     38.30206151	    -51.83768222	    -69.72746872	    103.39734577	      1.80462412	     29.31711055	    -17.60195939	      0.00000000	      0.61906364	     23.62147530	     39.78204084	     16.77304615	      0.29274488	      9.31638116	    -19.69634520	      0.00000000	     -0.16070397	     -1.71407653	      7.71825746	     -0.29844335	     -2.27972179	      8.20064855	     -0.26402056	     -4.16760568	      8.20064855	     -0.18366857	     -4.16760568	      6.75347528	     -0.14922971	     -3.49534486	      6.27108419	     -0.09182625	     -2.65510455	      5.78869310	     -1.14789240	    -19.38997653	     42.92663252	      0.00000000	      0.00000000	     27.52399335	    -19.62649909	    -43.64312928	     12.73642859	     -6.48577957	    -78.76550883	      6.70943037	    -45.54262289	     20.00411030	      5.00000014	     14.49228647	    -31.46174622	   -212.08234142	     48.52751493	     34.16245373	     20.00411030	      5.00000014
      5.63333333	      4.08257015	    -10.61591493	    116.58239463	     -0.46280246	      0.87436781	      0.03955381	     36.12674587	    -52.92849217	    -69.66859185	     99.75330630	      1.74102363	     26.69142772	    -18.24568461	      0.00000000	      2.89674787	     25.56482123	     39.79462821	     19.31352022	      0.33708452	     -4.72439334	    -19.74019568	      0.00000000	     -0.16709612	     -1.78375592	      7.83027911	     -0.31031420	     -2.37239538	      8.31967155	     -0.27452221	     -4.33702415	      8.31967155	     -0.19097415	     -4.33702415	      6.85149422	     -0.15516545	     -3.63743508	      6.36210177	     -0.09547872	     -2.76303792	      5.87270933	     -1.19355085	    -20.17820374	     43.54966331	      0.00000000	      0.00000000	     27.51463848	    -19.09701533	    -43.66440452	     12.46577845	     -6.23622188	    -78.26998552	      6.73399717	    -45.40523646	     20.00410896	      5.00000014	     13.11831083	    -31.52712415	   -211.81705117	     46.57489338	     34.20931895	     20.00410896	      5.00000014
      5.66666667	      4.76549563	    -10.10454209	    117.15029199	     -0.46524179	      0.87590505	      0.04078153	     33.24526267	    -52.18469033	    -69.62491273	     95.19980113	      1.66154998	     24.17748896	    -18.87458040	      0.00000000	      3.92173722	     25.40821948	     39.80004070	     21.12165767	      0.36864247	     -6.38084753	    -19.73257645	      0.00000000	     -0.14276818	     -1.65207592	      7.81044116	     -0.26513478	     -2.19726097	      8.29859373	     -0.23455384	     -4.01685739	      8.29859373	     -0.16316975	     -4.01685739	      6.83413602	     -0.13257453	     -3.36891322	      6.34598344	     -0.08157774	     -2.55906560	      5.85783087	     -1.01977882	    -18.68861323	     43.43933061	      0.00000000	      0.00000000	     27.48987715	    -17.75575563	    -43.66851805	     11.71628449	     -7.02623424	    -68.88427893	      5.35323629	    -43.81104047	     20.00407963	      5.00000014	     11.73434979	    -30.50977866	   -211.37951279	     45.13746930	     35.54049017	     20.00407963	      5.00000014
      5.70000000	      5.75600404	     -9.53672301	    118.33403268	     -0.46808879	      0.87651902	      0.04229418	     29.96843362	    -50.68006206	    -69.58156910	     89.73485137	      1.56616861	     21.73959558	    -19.24024371	      0.00000000	      5.01971507	     24.88015966	     39.80894135	     23.54952766	      0.41101679	     -2.39165445	    -19.70837417	      0.00000000	     -0.09248957	     -1.47985694	      7.68331162	     -0.17176239	     -1.96820973	      8.16351860	     -0.15195112	     -3.59812417	      8.16351860	     -0.10570633	     -3.59812417	      6.72289767	     -0.08588582	     -3.01772428	      6.24269069	     -0.05284854	     -2.29229840	      5.76248372	     -0.66064377	    -16.74043769	     42.73227426	      0.00000000	      0.00000000	     27.47966319	    -17.61757293	    -43.68417868	     11.12848149	     -7.68938480	    -68.93740871	      5.34448550	    -43.79637879	     20.00407897	      5.00000014	     10.86036972	    -29.53858616	   -211.32957062	     45.20824646	     35.53836939	     20.00407897	      5.00000014
      5.73333333	      7.48953573	     -7.75399891	    119.06994497	     -0.47148512	      0.87758620	      0.04381198	     25.48039705	    -46.66229039	    -69.55016321	     82.64266947	      1.44238668	     18.53162761	    -19.44478831	      0.00000000	      5.15269815	     22.85980522	     39.82078141	     25.50373558	      0.44512416	      3.71149661	    -19.67395579	      0.00000000	     -0.04565741	     -1.10480953	      7.65120341	     -0.08479037	     -1.46939667	      8.12940363	     -0.07501056	     -2.68623389	      8.12940363	     -0.05218185	     -2.68623389	      6.69480299	     -0.04239747	     -2.25292759	      6.21660277	     -0.02608864	     -1.71134996	      5.73840256	     -0.32612630	    -12.49782634	     42.55369802	      0.00000000	      0.00000000	     27.45426846	    -17.51164953	    -43.68327014	     10.37537520	     -9.34549533	    -69.15476046	      4.68544071	    -43.89026777	     20.00407715	      5.00000014	      9.16988115	    -26.55155520	   -210.01288448	     42.89586719	     35.64105235	     20.00407715	      5.00000014
      5.76666667	      9.01047697	     -6.29762126	    120.43768403	     -0.47515205	      0.87813445	      0.04518060	     20.94303999	    -42.25271522	    -69.51312162	     74.55855583	      1.30129228	     14.82469444	    -19.55859238	      0.00000000	      5.75631263	     21.37397116	     39.83043463	     27.99155837	      0.48854486	      9.10810221	    -19.61408283	      0.00000000	      0.01514566	     -0.77916814	      7.48744680	      0.02812701	     -1.03629362	      7.95541223	      0.02488281	     -1.89446941	      7.95541223	      0.01730998	     -1.89446941	      6.55151595	      0.01406426	     -1.58887967	      6.08355053	      0.00865423	     -1.20693145	      5.61558510	      0.10818396	     -8.81410582	     41.64293287	      0.00000000	      0.00000000	     27.43776153	    -18.11500884	    -43.68887093	      9.58549224	    -10.60560097	    -70.66924276	      4.54406326	    -43.31169567	     20.00407012	      5.00000014	      8.31259883	    -23.30119422	   -205.86712089	     41.52860043	     34.94680103	     20.00407012	      5.00000014
      5.80000000	     10.19236814	     -5.00518929	    121.94939812	     -0.47877805	      0.87844428	      0.04620804	     16.40951864	    -37.43397901	    -69.48603807	     65.81414347	      1.14867350	     10.51089602	    -19.62620011	      0.00000000	      6.76818534	     20.59915561	     39.83666309	     31.14040521	      0.54350260	     12.42449984	    -19.55640762	      0.00000000	      0.06414151	     -0.49685747	      7.27737567	      0.11911719	     -0.66082044	      7.73221165	      0.10537808	     -1.20805925	      7.73221165	      0.07330733	     -1.20805925	      6.36770371	      0.05956180	     -1.01319175	      5.91286773	      0.03665046	     -0.76963222	      5.45803175	      0.45815637	     -5.62055108	     40.47458025	      0.00000000	      0.00000000	     27.42392625	    -19.07288331	    -43.68542894	      8.88776147	    -11.75030991	    -71.57014895	      4.33124708	    -43.56008238	     20.00406439	      5.00000014	      7.68954139	    -20.58727183	   -203.12066829	     40.52933748	     34.54331389	     20.00406439	      5.00000014
      5.83333333	     10.78191678	     -4.35299161	    123.71093154	     -0.48209319	      0.87814602	      0.04687867	     12.50516924	    -33.32535960	    -69.47864089	     57.64005810	      1.00600879	      5.86844083	    -19.66585672	      0.00000000	      8.73073487	     21.27105374	     39.83735854	     35.50888994	      0.61974704	     12.83774694	    -19.54143251	      0.00000000	      0.10988855	     -0.32770065	      7.02487876	      0.20407403	     -0.43584187	      7.46393368	      0.18053591	     -0.79677137	      7.46393368	      0.12559163	     -0.79677137	      6.14676891	      0.10204251	     -0.66824717	      5.70771399	      0.06279032	     -0.50760831	      5.26865907	      0.78492296	     -3.70701534	     39.07026818	      0.00000000	      0.00000000	     27.41059722	    -19.24944328	    -43.68065547	      8.19228976	    -12.48147315	    -71.69294824	      4.24081042	    -43.70984777	     20.00406327	      5.00000014	      7.31061538	    -19.07999603	   -203.01100677	     39.66941497	     34.45070098	     20.00406327	      5.00000014
